HIERARCHY
ROOT Hips
{
	OFFSET 0.00 0.00 0.00
	CHANNELS 6 Xposition Yposition Zposition Xrotation Yrotation Zrotation
	JOINT Spine
	{
		OFFSET 0.00000 1.15266 1.72900
		CHANNELS 3 Xrotation Yrotation Zrotation
		JOINT Spine1
		{
			OFFSET 0.00000 0.40032 2.27031
			CHANNELS 3 Xrotation Yrotation Zrotation
			JOINT Spine2
			{
				OFFSET 0.00000 0.20092 2.29656
				CHANNELS 3 Xrotation Yrotation Zrotation
				JOINT Spine3
				{
					OFFSET 0.00000 0.00000 2.30533
					CHANNELS 3 Xrotation Yrotation Zrotation
					JOINT Neck
					{
						OFFSET 0.00000 -0.86449 6.05149
						CHANNELS 3 Xrotation Yrotation Zrotation
						JOINT Head
						{
							OFFSET 0.00000 -0.55043 3.12167
							CHANNELS 3 Xrotation Yrotation Zrotation
							End Site
							{
								OFFSET 0.00000 0.00000 3.73175
							}
						}
					}
					JOINT RightShoulder
					{
						OFFSET -0.78828 -1.31380 4.25672
						CHANNELS 3 Xrotation Yrotation Zrotation
						JOINT RightArm
						{
							OFFSET -3.91513 0.00000 0.00000
							CHANNELS 3 Xrotation Yrotation Zrotation
							JOINT RightForeArm
							{
								OFFSET -6.91491 0.00000 0.00000
								CHANNELS 3 Xrotation Yrotation Zrotation
								JOINT RightHand
								{
									OFFSET -6.09622 0.00000 0.00000
									CHANNELS 3 Xrotation Yrotation Zrotation
									JOINT RightHandEnd
									{
										OFFSET -1.74995 0.00000 0.00000
										CHANNELS 3 Xrotation Yrotation Zrotation
										End Site
										{
											OFFSET -1.74995 0.00000 0.00000
										}
									}
									JOINT RightHandThumb1
									{
										OFFSET -0.69998 -1.16663 -0.46665
										CHANNELS 3 Yrotation Xrotation Zrotation
										End Site
										{
											OFFSET -1.69032 -0.45292 0.00000
										}
									}
								}
							}
						}
					}
					JOINT LeftShoulder
					{
						OFFSET 0.78828 -1.31380 4.25672
						CHANNELS 3 Xrotation Yrotation Zrotation
						JOINT LeftArm
						{
							OFFSET 3.91513 0.00000 0.00000
							CHANNELS 3 Xrotation Yrotation Zrotation
							JOINT LeftForeArm
							{
								OFFSET 6.91491 0.00000 0.00000
								CHANNELS 3 Xrotation Yrotation Zrotation
								JOINT LeftHand
								{
									OFFSET 6.09622 0.00000 0.00000
									CHANNELS 3 Xrotation Yrotation Zrotation
									JOINT LeftHandEnd
									{
										OFFSET 1.74995 0.00000 0.00000
										CHANNELS 3 Xrotation Yrotation Zrotation
										End Site
										{
											OFFSET 1.74995 0.00000 0.00000
										}
									}
									JOINT LeftHandThumb1
									{
										OFFSET 0.69998 -1.16663 -0.46665
										CHANNELS 3 Yrotation Xrotation Zrotation
										End Site
										{
											OFFSET 1.69032 -0.45292 0.00000
										}
									}
								}
							}
						}
					}
				}
			}
		}
	}
	JOINT RightUpLeg
	{
		OFFSET -2.33857 0.00000 -0.68318
		CHANNELS 3 Xrotation Yrotation Zrotation
		JOINT RightLeg
		{
			OFFSET 0.00000 0.00000 -10.74496
			CHANNELS 3 Xrotation Yrotation Zrotation
			JOINT RightFoot
			{
				OFFSET 0.00000 0.00000 -10.93085
				CHANNELS 3 Xrotation Yrotation Zrotation
				JOINT RightToeBase
				{
					OFFSET 0.00000 -4.08727 -1.48765
					CHANNELS 3 Xrotation Yrotation Zrotation
					End Site
					{
						OFFSET 0.00000 -1.89187 -0.00000
					}
				}
			}
		}
	}
	JOINT LeftUpLeg
	{
		OFFSET 2.33857 0.00000 -0.68318
		CHANNELS 3 Xrotation Yrotation Zrotation
		JOINT LeftLeg
		{
			OFFSET 0.00000 0.00000 -10.74496
			CHANNELS 3 Xrotation Yrotation Zrotation
			JOINT LeftFoot
			{
				OFFSET 0.00000 0.00000 -10.93085
				CHANNELS 3 Xrotation Yrotation Zrotation
				JOINT LeftToeBase
				{
					OFFSET 0.00000 -4.08727 -1.48765
					CHANNELS 3 Xrotation Yrotation Zrotation
					End Site
					{
						OFFSET 0.00000 -1.89187 -0.00000
					}
				}
			}
		}
	}
}
MOTION
Frames: 13
Frame Time:	0.02
 -5.1741 2.0957 23.6591 -4.5829 -0.1381 -173.5860 0.0417 -0.4566 -0.3646 -0.8569 0.1561 -0.3028 7.1301 1.3914 -6.9516 0.7800 1.0111 -1.3804 -7.5306 -7.4507 -7.5284 8.6529 -0.5013 -3.9250 -3.4730 -21.1564 -12.5116 -30.3036 -15.7923 -25.2512 0.0000 0.0000 37.3325 -11.7049 33.5363 -1.2910 0.0000 -0.0000 0.0000 -0.0000 -0.0000 0.0000 2.1737 5.9367 2.1806 -8.7142 20.6554 -4.0188 -0.0000 -0.0000 -10.1761 -7.8170 -22.8948 1.2462 -0.0000 0.0000 -0.0000 0.0000 -0.0000 -0.0000 -12.8200 7.1751 5.8657 35.5185 0.0000 0.0000 -26.1185 -7.8219 -10.1856 4.9674 0.0000 0.0000 -21.2171 -12.1651 -20.5001 24.9885 0.0000 0.0000 -15.5934 19.0837 -15.0240 -3.7991 0.0000 -0.0000
 -5.8233 2.0154 23.7023 -4.1465 6.3915 167.6390 1.2893 -0.4850 -0.0208 0.0030 -1.5127 -0.0056 4.9677 4.5675 1.9895 -0.1535 3.4172 -0.6743 -7.5170 2.3111 -2.7041 8.5683 -1.1821 -0.2114 -2.2964 -19.0917 -6.5213 -43.5214 -14.3703 -24.6269 -0.0000 0.0001 54.5147 -4.2026 38.3526 2.8458 -0.0000 -0.0000 -0.0000 -0.0000 -0.0000 -0.0000 -0.8462 9.1868 3.5360 -27.0688 16.3049 14.7225 -0.0000 -0.0000 -18.5870 -19.5359 -21.0710 1.5131 -0.0000 0.0000 0.0000 0.0000 -0.0000 -0.0000 -21.4604 13.0936 16.1856 38.8928 0.0000 0.0000 -22.8808 -11.8212 0.1607 4.7595 0.0000 0.0000 -13.5711 -7.5759 -8.9189 22.0182 0.0000 0.0000 -18.6168 13.9147 -4.9807 -3.4102 0.0000 -0.0000
 -6.4550 2.2043 23.6851 0.2554 14.1770 146.8149 3.0327 0.8352 0.0262 1.4076 -2.2816 0.4783 2.5273 8.6559 12.4488 -0.9293 6.0882 -0.2588 -9.5018 11.6965 2.9796 7.2901 -4.5296 3.5908 -1.8479 -11.9722 -1.2906 -54.0037 -23.6653 -30.1578 -0.0000 0.0001 76.7907 5.9985 37.6187 6.8455 0.0000 -0.0000 0.0000 -0.0000 0.0000 -0.0000 -4.0980 13.4672 5.7976 -42.9179 5.3046 29.8885 -0.0000 -0.0000 -33.6720 -30.9208 -15.8919 -2.4391 0.0000 -0.0000 0.0000 0.0000 0.0000 0.0000 -31.5857 16.6805 30.7447 40.8497 0.0000 0.0000 -19.4746 -14.9123 8.4656 4.5594 0.0000 0.0000 -5.8957 -1.1082 14.3792 16.4617 0.0000 0.0000 -16.1455 15.9356 -6.7257 -2.4977 0.0000 -0.0000
 -6.8364 2.4874 23.5876 5.4877 18.6024 131.0537 3.7412 1.2340 -0.1023 1.8549 -2.1853 0.8385 2.6504 12.1451 19.7957 -0.8828 8.1596 -0.5029 -14.2629 17.8549 9.7093 5.2318 -8.8524 5.0145 -2.3598 -0.7309 3.1776 -59.5316 -37.2590 -40.1631 -0.0000 0.0001 98.1799 18.9592 36.4658 5.9230 -0.0000 0.0000 -0.0000 -0.0000 0.0000 0.0000 -7.8568 18.8837 9.5328 -55.5272 -3.0144 36.8373 -0.0000 -0.0000 -54.1554 -37.6975 -13.9090 -6.9564 -0.0000 0.0000 -0.0000 -0.0000 -0.0000 -0.0000 -38.4917 16.2594 43.2592 41.4486 0.0000 0.0000 -18.1760 -16.4258 11.1319 4.8248 0.0000 0.0000 -1.9651 5.8119 25.5506 11.8740 0.0000 0.0000 -13.9073 17.7943 -9.6032 -1.8698 0.0000 -0.0000
 -6.8198 2.5809 23.4242 8.2597 18.8653 126.0715 3.9628 1.4181 0.3163 1.5034 -1.7339 0.9907 5.1978 13.6030 21.9596 0.0597 8.4122 -0.5893 -17.0282 18.2910 13.4737 3.5644 -12.1400 2.7778 -1.5419 8.6881 5.0804 -56.8143 -45.5635 -42.9736 -0.0001 0.0001 111.4697 29.1134 41.4920 12.3624 0.0000 -0.0000 -0.0000 -0.0000 -0.0000 -0.0000 -11.3733 25.5783 13.3533 -66.0493 -0.7943 34.3410 -0.0000 -0.0001 -74.5154 -34.1262 -18.4492 -9.9706 0.0000 -0.0000 0.0000 -0.0000 0.0000 0.0000 -38.7304 14.2090 50.1255 43.9148 0.0000 0.0000 -20.4416 -16.1742 7.4122 5.1533 0.0000 0.0000 -1.5773 7.7984 12.9460 13.5047 0.0000 0.0000 -17.0741 14.8194 -4.6870 -1.7692 0.0000 -0.0000
 -6.4676 2.4011 23.2228 7.1298 17.0084 133.9682 3.8979 1.8461 0.3757 1.1506 -0.9244 1.0039 6.4004 12.9382 20.1745 0.7716 6.7993 -0.1776 -13.3886 11.1190 9.5582 3.5016 -13.7150 -1.2963 1.5677 9.2181 2.8839 -48.0719 -39.4489 -37.1526 -0.0001 0.0001 115.2523 39.5727 40.8086 21.6149 -0.0000 0.0000 -0.0000 0.0000 -0.0000 0.0000 -11.0074 29.5289 13.2991 -67.2844 12.1156 25.0727 -0.0001 -0.0001 -86.0785 -20.8583 -25.8708 -7.0088 0.0000 0.0000 -0.0000 -0.0000 -0.0000 0.0000 -34.7354 13.3870 46.8406 48.2700 0.0000 0.0000 -24.3590 -14.4735 2.1790 5.0815 0.0000 0.0000 -4.4421 3.4835 0.8979 21.3292 0.0000 0.0000 -18.8347 15.8094 -10.0585 -2.0693 0.0000 -0.0000
 -5.8047 2.0749 23.0849 3.2773 12.5712 150.3326 4.5363 2.1718 0.2044 1.2779 0.1796 0.8956 4.7022 10.7661 14.7044 0.2159 4.1451 0.1319 -7.3471 -3.0941 1.5860 4.3902 -13.2549 -6.0623 3.2573 2.0978 -1.4717 -42.7630 -25.4543 -30.5382 -0.0001 0.0001 107.1491 46.6258 38.3064 11.2813 -0.0000 0.0000 0.0000 -0.0000 -0.0000 0.0000 -6.0142 24.0554 7.9228 -56.0611 25.6985 13.2648 -0.0001 -0.0001 -87.7773 -9.5088 -29.7335 -1.3220 -0.0000 0.0000 -0.0000 0.0000 0.0000 0.0000 -28.9881 12.9115 31.5253 51.0455 0.0000 0.0000 -27.0697 -11.5026 -0.3856 5.0442 0.0000 0.0000 -10.8698 -7.3465 2.3198 29.5217 0.0000 0.0000 -11.4995 21.9619 -29.9641 -2.6960 0.0000 -0.0000
 -4.9442 1.8949 23.0954 0.4234 3.5907 169.4150 6.3259 1.1139 0.1560 1.8407 1.2056 0.4666 2.6521 6.4716 5.1853 -0.6813 0.7174 0.3723 -4.0265 -16.4380 -5.3917 5.1113 -10.7554 -10.7275 0.4099 -0.0153 -5.8898 -41.6633 -18.0674 -26.7111 -0.0000 0.0001 85.7113 38.0007 30.0513 -3.3829 -0.0000 0.0000 -0.0000 0.0000 -0.0000 -0.0000 -0.5477 10.8265 2.4559 -39.5750 35.4631 -2.1247 -0.0001 -0.0001 -86.0321 -6.6010 -27.4564 -1.3419 -0.0000 -0.0000 -0.0000 0.0000 -0.0000 0.0000 -20.9844 9.8264 7.6689 50.0210 0.0000 0.0000 -26.9950 -7.8832 -0.5078 5.2337 0.0000 0.0000 -20.3904 -18.8846 -0.3109 35.9286 0.0000 0.0000 -1.9676 22.6919 -43.3591 -3.1510 0.0000 -0.0000
 -4.2878 1.9655 23.3085 1.4768 -4.1200 -172.9516 8.5834 1.1880 -0.3569 2.4150 1.5093 -0.1426 2.0480 1.4598 -4.4409 -0.9808 -2.7632 0.9351 -4.7944 -24.7123 -11.3524 4.5611 -6.5765 -14.6138 -4.9295 4.9481 -7.9697 -50.8068 -14.5027 -27.7482 -0.0000 0.0001 58.7177 10.8053 11.1752 -11.2986 -0.0000 0.0000 -0.0000 -0.0000 -0.0000 -0.0000 2.3727 -1.8744 -0.9316 -22.9596 35.8986 -23.9726 -0.0001 -0.0001 -85.7576 -2.3169 -24.7312 -4.6234 -0.0000 -0.0000 -0.0000 -0.0000 -0.0000 -0.0000 -13.4427 5.9074 -13.3594 46.9576 0.0000 0.0000 -23.6382 -6.2295 0.4169 4.6940 0.0000 0.0000 -27.1957 -21.1509 -13.3202 36.2174 0.0000 0.0000 -1.6108 21.1168 -39.9290 -3.4593 0.0000 -0.0000
 -3.9924 2.0143 23.5135 1.9154 -7.9834 -159.9190 9.5943 2.1446 -1.0690 2.5144 1.6282 -0.5856 1.9467 -2.4890 -10.9175 -0.8886 -5.6534 1.2293 -7.5709 -28.4164 -15.6070 1.8542 -2.0763 -18.3427 -10.5347 7.2660 -5.8707 -73.1070 -0.6073 -27.7318 -0.0000 0.0000 38.9811 -8.4329 7.2972 -17.5723 -0.0000 0.0000 0.0000 0.0000 -0.0000 0.0000 2.2293 -10.3185 -2.6937 -14.8632 25.3796 -42.2068 -0.0001 -0.0001 -88.3645 4.0992 -22.8979 -7.6785 0.0000 0.0000 -0.0000 0.0000 0.0000 0.0000 -12.4741 2.6430 -19.8611 46.0394 0.0000 0.0000 -19.5293 -6.9426 -1.2284 3.0130 0.0000 0.0000 -29.6436 -18.3444 -27.4602 31.5860 0.0000 0.0000 -6.3033 19.6162 -30.0631 -4.1982 0.0000 -0.0000
 -4.0014 2.0295 23.5078 1.7136 -9.0629 -151.7074 9.9126 2.5915 -1.3354 2.5444 2.0521 -0.8451 2.1228 -4.7974 -14.9197 -0.6601 -7.3165 0.8251 -9.7609 -28.2346 -17.7433 -1.3341 1.3611 -21.5413 -15.3543 7.7331 -4.2420 -89.8703 8.8635 -27.5248 -0.0000 0.0000 47.8701 -14.2267 17.7781 -17.2478 0.0000 0.0000 0.0000 0.0000 -0.0000 0.0000 1.3086 -17.1629 -3.0562 -17.6294 13.4899 -51.4217 -0.0001 -0.0001 -92.4881 4.2451 -19.5187 -12.9234 0.0000 0.0000 0.0000 0.0000 -0.0000 0.0000 -13.8572 -0.0647 -12.0707 46.4351 0.0000 0.0000 -19.2002 -8.5075 -6.3719 1.5819 0.0000 0.0000 -30.6309 -15.4520 -35.8072 28.1517 0.0000 0.0000 -9.4029 19.2312 -25.2705 -4.3375 0.0000 -0.0000
 -4.2863 1.9955 23.3184 1.1505 -6.7212 -149.0573 9.8633 3.5717 -1.5613 2.5834 2.4698 -0.8903 3.1128 -5.7340 -16.0263 -0.4955 -7.7050 0.2841 -10.1466 -23.4400 -17.8801 -1.7122 3.5763 -22.3776 -16.2176 6.0071 -5.9855 -90.4059 4.7640 -29.7188 -0.0000 0.0001 72.2261 -16.9963 21.7957 -9.4501 0.0000 0.0000 0.0000 0.0000 -0.0000 0.0000 1.6616 -23.5011 -1.2885 -25.4816 8.6110 -52.5270 -0.0001 -0.0001 -95.1004 5.1583 -17.3103 -18.1918 -0.0000 0.0000 0.0000 -0.0000 0.0000 0.0000 -12.9978 -0.9615 1.2758 47.1449 0.0000 0.0000 -23.3168 -8.0767 -13.2940 1.8078 0.0000 0.0000 -31.4396 -12.0095 -33.0639 29.7704 0.0000 0.0000 -8.9208 20.3396 -29.7535 -3.9006 0.0000 -0.0000
 -4.8205 1.8755 23.2040 0.6800 -2.8133 -155.5195 9.3264 3.9033 -1.5512 2.4765 2.3308 -0.7106 4.1391 -5.6131 -12.6941 -0.5585 -6.5877 0.4510 -8.3574 -13.8344 -15.0944 1.1607 5.1988 -19.3712 -13.0090 1.1627 -5.9217 -86.4344 -2.0286 -23.1229 -0.0000 0.0001 93.6176 -0.5944 21.1989 -6.7707 -0.0000 0.0000 -0.0000 0.0000 -0.0000 -0.0000 2.8442 -25.5204 3.6397 -31.6031 10.9208 -47.3586 -0.0001 -0.0001 -93.6868 13.1328 -20.6876 -19.8099 -0.0000 -0.0000 0.0000 0.0000 -0.0000 0.0000 -11.9743 1.3631 12.0305 48.1475 0.0000 0.0000 -25.6325 -6.8182 -15.0446 2.3031 0.0000 0.0000 -29.6632 -10.9268 -22.1643 33.1541 0.0000 0.0000 -8.1303 20.3660 -34.1002 -3.9303 0.0000 -0.0000
